<svg id="Layer_1" data-name="Layer 1" xmlns="http://www.w3.org/2000/svg" viewBox="0 0 2000 1161"><defs><style>.cls-1{fill:#231f20;}.cls-2{fill:#a7a9ac;}.cls-3{fill:#fff;}</style></defs><polygon class="cls-1" points="425.79 835.56 1214.66 129.29 1214.8 129.23 1442.34 328.33 1544.01 328.33 1214.17 39.76 251.31 902.49 1720.5 902.49 1795.47 835.56 425.79 835.56"/><polygon class="cls-2" points="56.22 1087.99 1538.34 1087.99 1677.19 964.08 195.06 964.08 56.22 1087.99"/><polygon class="cls-3" points="1159.5 578.67 1328.53 406.72 1234.83 406.72 1097.24 547.54 1084.78 547.54 1139.52 406.72 1057.74 406.72 920.92 758.73 1002.7 758.73 1058.89 614.14 1071.9 614.14 1102.88 758.73 1198.74 758.73 1160.02 581.09 1159.5 578.67"/><polygon class="cls-3" points="1459.46 637.66 1439.61 688.82 1345.64 688.82 1345.43 688.82 1366.06 635.76 1285.38 635.76 1237.55 758.9 1493.52 758.9 1560.7 585.1 1410.36 521.73 1427.95 476.58 1521.78 476.58 1522.13 476.58 1503.62 524.2 1584.3 524.2 1629.73 406.71 1373.84 406.71 1309.61 572.6 1459.46 637.66"/><polygon class="cls-3" points="1826.85 530.21 1907.53 530.21 1955.15 406.71 1699.53 406.71 1563.25 758.9 1818.93 758.9 1863.9 642.56 1783.64 641.31 1766.23 686.2 1766.02 686.2 1672.34 686.2 1752.17 479.83 1846.27 479.83 1826.85 530.21"/><path class="cls-1" d="M315,1001.24l-10.93,49.67h11.69l1.83-9.24h13.45l1.84,9.24h11.69l-10.77-49.67Zm4.58,30.8,4.2-20.94h1.15l4.21,20.94Z"/><polygon class="cls-1" points="347.33 1011.41 359.86 1011.41 359.86 1050.91 371.47 1050.91 371.47 1011.41 384 1011.41 384 1001.24 347.33 1001.24 347.33 1011.41"/><rect class="cls-1" x="393.47" y="1001.24" width="11.54" height="49.67"/><polygon class="cls-1" points="416.7 1050.91 448.33 1050.91 448.33 1041.05 428.24 1041.05 428.24 1030.89 442.83 1030.89 442.83 1021.11 428.24 1021.11 428.24 1011.1 448.33 1011.1 448.33 1001.24 416.7 1001.24 416.7 1050.91"/><path class="cls-1" d="M488.06,1025.24c0,3.21.16,7.94.39,12.83a121.27,121.27,0,0,0-5.66-15l-10.08-21.86H458.65v49.67h10v-21.62c0-2.75-.07-7.19-.3-12a85.79,85.79,0,0,0,5,13.75l9.78,19.87h14.9v-49.67h-10Z"/><polygon class="cls-1" points="555.91 1050.91 587.54 1050.91 587.54 1041.05 567.45 1041.05 567.45 1030.89 582.04 1030.89 582.04 1021.11 567.45 1021.11 567.45 1011.1 587.54 1011.1 587.54 1001.24 555.91 1001.24 555.91 1050.91"/><path class="cls-1" d="M749.67,1027.45v-17.11l-7.18-9.1H713.68v49.67h11.54v-14.52h8.4l4.59,14.52h11.54l-5-15.05Zm-11.38-.91H725.22v-15h13.07Z"/><rect class="cls-1" x="760.75" y="1001.24" width="11.54" height="49.67"/><path class="cls-1" d="M784,1001.24v49.67h27.21l9.24-9.78v-29.49l-8-10.4ZM809,1040.67H795.51v-29.11H809Z"/><polygon class="cls-1" points="831.57 1050.91 863.21 1050.91 863.21 1041.05 843.11 1041.05 843.11 1030.89 857.71 1030.89 857.71 1021.11 843.11 1021.11 843.11 1011.1 863.21 1011.1 863.21 1001.24 831.57 1001.24 831.57 1050.91"/><polygon class="cls-1" points="989.35 1050.91 1020.98 1050.91 1020.98 1041.05 1000.88 1041.05 1000.88 1030.89 1015.48 1030.89 1015.48 1021.11 1000.88 1021.11 1000.88 1011.1 1020.98 1011.1 1020.98 1001.24 989.35 1001.24 989.35 1050.91"/><path class="cls-1" d="M1067.28,1027.45v-17.11l-7.18-9.1h-28.81v49.67h11.54v-14.52h8.4l4.59,14.52h11.54l-5-15.05Zm-11.39-.91h-13.06v-15h13.06Z"/><polygon class="cls-1" points="1124.51 1050.91 1156.14 1050.91 1156.14 1041.05 1136.04 1041.05 1136.04 1030.89 1150.64 1030.89 1150.64 1021.11 1136.04 1021.11 1136.04 1011.1 1156.14 1011.1 1156.14 1001.24 1124.51 1001.24 1124.51 1050.91"/><polygon class="cls-1" points="1185.17 1039.98 1184.26 1039.98 1176.31 1001.24 1164.31 1001.24 1175.85 1050.91 1193.35 1050.91 1204.81 1001.24 1192.82 1001.24 1185.17 1039.98"/><polygon class="cls-1" points="1213.97 1050.91 1245.61 1050.91 1245.61 1041.05 1225.51 1041.05 1225.51 1030.89 1240.11 1030.89 1240.11 1021.11 1225.51 1021.11 1225.51 1011.1 1245.61 1011.1 1245.61 1001.24 1213.97 1001.24 1213.97 1050.91"/><path class="cls-1" d="M1291.91,1027.45v-17.11l-7.18-9.1h-28.81v49.67h11.54v-14.52h8.4l4.59,14.52H1292l-5-15.05Zm-11.39-.91h-13.06v-15h13.06Z"/><path class="cls-1" d="M1311.39,1001.24l-10.93,49.67h11.69l1.84-9.24h13.45l1.83,9.24H1341l-10.77-49.67ZM1316,1032l4.21-20.94h1.14l4.21,20.94Z"/><path class="cls-1" d="M1379.62,1025.24c0,3.21.15,7.94.38,12.83a121.17,121.17,0,0,0-5.65-15l-10.09-21.86H1350.2v49.67h10v-21.62c0-2.75-.07-7.19-.3-12a84.84,84.84,0,0,0,5,13.75l9.78,19.87h14.9v-49.67h-10Z"/><polygon class="cls-1" points="1479.1 1011.1 1479.1 1001.24 1447.47 1001.24 1447.47 1050.91 1479.1 1050.91 1479.1 1041.05 1459 1041.05 1459 1030.89 1473.6 1030.89 1473.6 1021.11 1459 1021.11 1459 1011.1 1479.1 1011.1"/><path class="cls-1" d="M278.46,1001.24H262.29v49.67h11.46v-11.54h24v-38.13H278.46Zm7.82,28.35H273.75v-18.18h12.53Z"/><polygon class="cls-1" points="518.16 1001.24 509.22 1001.24 509.22 1010.41 509.22 1011.55 509.22 1040.6 509.22 1041.05 509.22 1050.91 518.85 1050.91 535.82 1050.91 545.29 1050.91 545.29 1041.13 545.29 1040.6 545.29 1030.89 533.9 1030.89 533.9 1040.6 520.61 1040.6 520.61 1011.56 533.9 1011.56 533.9 1018.67 545.29 1018.67 545.29 1011.56 545.29 1011.55 545.29 1011.55 545.29 1001.24 536.12 1001.24 518.16 1001.24"/><path class="cls-1" d="M672.25,1001.24H668v49.67h11.46v-11.54h15.9l.27,0h7.83v-38.11h-31.2ZM692,1029.59H679.45v-18H692Z"/><polygon class="cls-1" points="1420.29 1001.24 1412.17 1001.24 1409.72 1001.24 1400.78 1001.24 1400.78 1010.41 1400.78 1041.05 1400.78 1050.91 1410.41 1050.91 1412.17 1050.91 1420.29 1050.91 1427.37 1050.91 1436.85 1050.91 1436.85 1041.13 1436.85 1040.67 1436.85 1030.89 1425.46 1030.89 1425.46 1040.67 1420.29 1040.67 1420.29 1040.67 1412.17 1040.67 1412.17 1011.56 1425.46 1011.56 1425.46 1018.67 1436.85 1018.67 1436.85 1011.56 1436.78 1011.49 1436.85 1011.49 1436.85 1001.24 1427.68 1001.24 1420.29 1001.24"/><path class="cls-1" d="M962.53,1001.24H943.66v49.67h11.46v-11.54h24v-38.13H962.53Zm5.12,28.35H955.12v-18.18h12.53Z"/><polygon class="cls-1" points="1102.32 1001.24 1094.17 1001.24 1086.38 1001.24 1077.59 1001.24 1077.59 1009.65 1077.59 1010.89 1077.59 1018.05 1077.59 1024.66 1102.27 1033.8 1102.27 1041.05 1088.98 1041.05 1088.98 1033.57 1077.59 1033.57 1077.59 1041.14 1077.59 1041.36 1077.59 1050.91 1086.76 1050.91 1094.17 1050.91 1097.08 1050.91 1104.41 1050.91 1113.66 1050.91 1113.66 1041.21 1113.66 1041.14 1113.66 1033.34 1113.66 1026.46 1088.98 1017.52 1088.98 1011.1 1102.27 1011.1 1102.27 1017.83 1113.66 1017.83 1113.66 1013.65 1113.66 1011.56 1113.66 1001.24 1104.49 1001.24 1102.32 1001.24"/><rect class="cls-1" x="893.73" y="1016.2" width="17.17" height="17.17"/><rect class="cls-1" x="617.7" y="1016.2" width="17.17" height="17.17"/></svg>