<svg id="Layer_1" data-name="Layer 1" xmlns="http://www.w3.org/2000/svg" viewBox="0 0 2000 932.33"><defs><style>.cls-1{fill:#c42036;}.cls-2{fill:#a7a9ac;}.cls-3{fill:#231f20;}</style></defs><polygon class="cls-1" points="1369.89 670.17 1342.91 670.17 1319.25 670.17 336.33 670.17 425.46 590.62 426.21 590.62 470.86 550.79 491.47 532.38 502.87 522.21 505.92 519.48 945.27 124.99 945.38 124.94 1121.02 278.63 1124.28 278.63 1148.27 278.63 1175.51 278.63 1199.5 278.63 944.89 55.88 471.39 480.99 201.64 721.83 1335.74 721.83 1393.61 670.17 1369.89 670.17"/><polygon class="cls-1" points="426.2 590.63 425.47 590.63 336.34 670.17 1315.22 670.17 1315.25 670.14 337.1 670.14 378.73 632.98 426.2 590.63"/><polygon class="cls-2" points="51.05 865.03 1195.13 865.03 1302.3 769.38 158.22 769.38 51.05 865.03"/><polygon class="cls-3" points="839.52 393.81 899.8 328.54 863.72 328.54 813.97 382.76 809.17 382.76 827.02 328.54 795.53 328.54 750.91 464.09 782.39 464.09 800.72 408.41 805.73 408.41 820.98 464.09 857.89 464.09 838.9 395.69 839.52 393.81"/><polygon class="cls-3" points="877.07 464.09 963.41 464.09 972.26 437.19 917.41 437.19 926.54 409.45 966.37 409.45 975.16 382.76 935.33 382.76 944.32 355.44 999.17 355.44 1008.03 328.54 921.69 328.54 877.07 464.09"/><path class="cls-3" d="M1090.75,394c-2.89,8.76-6.72,21.69-10.5,35a271.74,271.74,0,0,0-2-40.88l-7.9-59.64H1032L987.39,464.09h27.32l19.43-59c2.47-7.5,6.24-19.6,9.94-32.74-.57,13.14-.38,26.49,1.41,37.54l8.85,54.22H1095l44.63-135.55H1112.3Z"/><path class="cls-3" d="M1224.84,394c-2.89,8.76-6.73,21.69-10.5,35a271.74,271.74,0,0,0-2-40.88l-7.9-59.64H1166.1l-44.62,135.55h27.32l19.43-59c2.47-7.5,6.24-19.6,9.94-32.74-.57,13.14-.38,26.49,1.41,37.54l8.84,54.22h40.67l44.62-135.55h-27.32Z"/><polygon class="cls-3" points="1328.15 381.72 1327.73 381.72 1323.97 328.54 1291.02 328.54 1301.86 411.54 1284.56 464.09 1316.05 464.09 1333.42 411.33 1400.3 328.54 1367.35 328.54 1328.15 381.72"/><polygon class="cls-3" points="1476.2 328.54 1468.65 351.48 1455.23 392.24 1467.8 397.77 1514.32 417.38 1507.8 437.19 1471.51 437.19 1478.24 416.75 1447.16 416.75 1431.58 464.09 1456.6 464.09 1530.02 464.09 1538.73 437.61 1551.99 397.34 1539.31 392.14 1492.65 372.96 1498.42 355.44 1534.7 355.44 1528.66 373.79 1559.74 373.79 1574.64 328.54 1549.61 328.54 1476.2 328.54"/><polygon class="cls-3" points="1555.45 464.09 1641.79 464.09 1650.64 437.19 1595.8 437.19 1604.92 409.45 1644.76 409.45 1653.54 382.76 1613.71 382.76 1622.7 355.44 1677.56 355.44 1686.41 328.54 1600.07 328.54 1555.45 464.09"/><path class="cls-3" d="M1769.13,394c-2.88,8.76-6.72,21.69-10.49,35a271.77,271.77,0,0,0-2-40.88l-7.89-59.64H1710.4l-44.63,135.55h27.32l19.43-59c2.47-7.5,6.25-19.6,9.94-32.74-.57,13.14-.38,26.49,1.41,37.54l8.85,54.22h40.67L1818,328.54h-27.32Z"/><path class="cls-3" d="M1943.33,328.54h-99.06l-8.16,24.81-27.39,83.21-.21.63-8.86,26.9h99.06l8.79-26.69.27-.84,16.62-50.46h-52.56l-7.89,24h21.89l-8.71,26.48h-37.54L1866,356.28h37.12l-5,15.22h31.07l5-15.22c.33-1,.63-2,.9-2.93h.06Z"/><path class="cls-3" d="M988.7,560.18c-2.36,7.16-5.49,17.72-8.57,28.62a222.86,222.86,0,0,0-1.61-33.39l-6.46-48.73H940.72L904.26,617.43h22.32l15.87-48.22c2-6.13,5.1-16,8.13-26.75-.47,10.73-.31,21.64,1.14,30.67l7.23,44.3h33.23l36.45-110.75h-22.32Z"/><polygon class="cls-3" points="1138.42 529.34 1166.36 529.34 1137.37 617.43 1163.26 617.43 1192.26 529.34 1220.2 529.34 1227.66 506.68 1145.88 506.68 1138.42 529.34"/><path class="cls-3" d="M1305.54,565.12,1318.1,527l-9.34-20.27h-64.23l-36.45,110.75h25.72l10.66-32.38h18.74l-.44,32.38h25.73l-.19-33.57Zm-24.71-2h-29.14l11-33.4h29.14Z"/><path class="cls-3" d="M1372,594.6h-30.33l28.94-87.92h-25.39l-29.5,89.62c-4.76,14.48,1.74,21.13,13.32,21.13h40.38c13.47,0,23.53-9.37,27.68-22l29.23-88.77H1401Z"/><polygon class="cls-3" points="1536.62 529.34 1564.57 529.34 1535.57 617.43 1561.47 617.43 1590.46 529.34 1618.41 529.34 1625.87 506.68 1544.08 506.68 1536.62 529.34"/><polygon class="cls-3" points="1607.13 617.43 1632.86 617.43 1669.31 506.68 1643.58 506.68 1607.13 617.43"/><path class="cls-3" d="M1862.37,506.68l-17.61,53.5c-2.36,7.16-5.49,17.72-8.57,28.62a221.57,221.57,0,0,0-1.62-33.39l-6.45-48.73h-31.34l-36.46,110.75h22.32l15.87-48.22c2-6.13,5.1-16,8.13-26.75-.47,10.73-.31,21.64,1.14,30.67l7.23,44.3h33.23l36.45-110.75Z"/><polygon class="cls-3" points="755.15 506.68 735.22 506.68 728.49 527.12 727.65 529.68 706.28 594.6 706 595.45 698.71 617.6 779.13 617.6 786.36 595.62 786.7 594.6 793.88 572.79 768.49 572.79 761.31 594.6 731.67 594.6 753.04 529.68 782.68 529.68 777.47 545.53 802.85 545.53 808.07 529.68 815.64 506.68 795.19 506.68 755.15 506.68"/><path class="cls-3" d="M854.32,506.68H835.75l-6.61,20.1-1,2.9L806.81,594.6l-.56,1.7-7,21.3h83.49L890,595.45l.28-.85,21.37-64.92,7.57-23H854.32Zm10.42,87.92H832.2l21.37-64.92h32.54Z"/><polygon class="cls-3" points="1467.74 506.68 1447.81 506.68 1441.08 527.12 1440.24 529.68 1418.87 594.6 1418.59 595.45 1411.3 617.6 1491.72 617.6 1498.95 595.62 1499.29 594.6 1506.47 572.79 1481.08 572.79 1473.9 594.6 1444.26 594.6 1465.63 529.68 1495.27 529.68 1490.06 545.53 1515.44 545.53 1520.66 529.68 1528.23 506.68 1507.78 506.68 1467.74 506.68"/><path class="cls-3" d="M1710.38,506.68h-18.57l-6.62,20.1-1,2.9-21.37,64.92-.56,1.7-7,21.3h83.48l7.29-22.15.28-.85,21.37-64.92,7.57-23h-64.91Zm10.42,87.92h-32.55l21.37-64.92h32.55Z"/><path class="cls-3" d="M1069,506.68h-19.6l-6.16,18.74-1.07,3.24-5.1,15.5-4.85,14.73,48.33,20.37-5.33,16.19H1045.6l5.5-16.7h-25.39l-5.5,16.7-.22.68-7.07,21.47h80.21l6.19-18.81c.42-1,.85-1.95,1.2-3l5.78-17.55,4.86-15.41L1062.88,543l4.71-14.31h29.64l-4.93,15h25.38l4.6-14c.12-.36.18-.67.3-1h0l7.23-22H1069Z"/><path class="cls-3" d="M259,798.76l-8.3,37.74h8.88l1.4-7h10.21l1.4,7h8.88l-8.19-37.74Zm3.48,23.4,3.2-15.91h.87l3.19,15.91Z"/><polygon class="cls-3" points="283.54 806.48 293.06 806.48 293.06 836.5 301.88 836.5 301.88 806.48 311.4 806.48 311.4 798.76 283.54 798.76 283.54 806.48"/><rect class="cls-3" x="318.6" y="798.76" width="8.77" height="37.74"/><polygon class="cls-3" points="336.25 836.5 360.29 836.5 360.29 829.01 345.02 829.01 345.02 821.29 356.11 821.29 356.11 813.85 345.02 813.85 345.02 806.25 360.29 806.25 360.29 798.76 336.25 798.76 336.25 836.5"/><path class="cls-3" d="M390.47,817c0,2.44.12,6,.29,9.75a92.14,92.14,0,0,0-4.29-11.38l-7.67-16.6H368.12V836.5h7.61V820.07c0-2.09-.06-5.46-.24-9.12a65.47,65.47,0,0,0,3.84,10.45l7.43,15.1h11.32V798.76h-7.61Z"/><polygon class="cls-3" points="442.02 836.5 466.06 836.5 466.06 829.01 450.79 829.01 450.79 821.29 461.88 821.29 461.88 813.85 450.79 813.85 450.79 806.25 466.06 806.25 466.06 798.76 442.02 798.76 442.02 836.5"/><path class="cls-3" d="M589.25,818.67v-13l-5.46-6.91H561.9V836.5h8.77v-11h6.38l3.49,11h8.76l-3.83-11.44ZM580.6,818h-9.93V806.6h9.93Z"/><rect class="cls-3" x="597.66" y="798.76" width="8.77" height="37.74"/><path class="cls-3" d="M615.31,798.76V836.5H636l7-7.43V806.66l-6.09-7.9Zm19,30H624.08V806.6h10.27Z"/><polygon class="cls-3" points="651.48 836.5 675.51 836.5 675.51 829.01 660.24 829.01 660.24 821.29 671.33 821.29 671.33 813.85 660.24 813.85 660.24 806.25 675.51 806.25 675.51 798.76 651.48 798.76 651.48 836.5"/><polygon class="cls-3" points="771.36 836.5 795.39 836.5 795.39 829.01 780.12 829.01 780.12 821.29 791.21 821.29 791.21 813.85 780.12 813.85 780.12 806.25 795.39 806.25 795.39 798.76 771.36 798.76 771.36 836.5"/><path class="cls-3" d="M830.57,818.67v-13l-5.46-6.91H803.23V836.5H812v-11h6.39l3.48,11h8.77l-3.83-11.44Zm-8.65-.69H812V806.6h9.93Z"/><polygon class="cls-3" points="874.05 836.5 898.09 836.5 898.09 829.01 882.82 829.01 882.82 821.29 893.91 821.29 893.91 813.85 882.82 813.85 882.82 806.25 898.09 806.25 898.09 798.76 874.05 798.76 874.05 836.5"/><polygon class="cls-3" points="920.15 828.2 919.45 828.2 913.41 798.76 904.3 798.76 913.06 836.5 926.36 836.5 935.07 798.76 925.95 798.76 920.15 828.2"/><polygon class="cls-3" points="942.03 836.5 966.07 836.5 966.07 829.01 950.8 829.01 950.8 821.29 961.89 821.29 961.89 813.85 950.8 813.85 950.8 806.25 966.07 806.25 966.07 798.76 942.03 798.76 942.03 836.5"/><path class="cls-3" d="M1001.25,818.67v-13l-5.46-6.91H973.9V836.5h8.77v-11h6.39l3.48,11h8.77l-3.84-11.44ZM992.6,818h-9.93V806.6h9.93Z"/><path class="cls-3" d="M1016.05,798.76l-8.3,37.74h8.88l1.39-7h10.22l1.4,7h8.88l-8.19-37.74Zm3.48,23.4,3.2-15.91h.87l3.19,15.91Z"/><path class="cls-3" d="M1067.89,817c0,2.44.12,6,.29,9.75a92.14,92.14,0,0,0-4.29-11.38l-7.67-16.6h-10.68V836.5h7.6V820.07c0-2.09-.05-5.46-.23-9.12a66.44,66.44,0,0,0,3.83,10.45l7.44,15.1h11.32V798.76h-7.61Z"/><polygon class="cls-3" points="1143.48 806.25 1143.48 798.76 1119.44 798.76 1119.44 836.5 1143.48 836.5 1143.48 829.01 1128.21 829.01 1128.21 821.29 1139.3 821.29 1139.3 813.85 1128.21 813.85 1128.21 806.25 1143.48 806.25"/><path class="cls-3" d="M231.21,798.76H218.92V836.5h8.71v-8.77h18.23v-29H231.21Zm5.95,21.54h-9.53V806.48h9.53Z"/><polygon class="cls-3" points="413.34 798.76 406.55 798.76 406.55 805.73 406.55 806.59 406.55 828.66 406.55 829.01 406.55 836.5 413.87 836.5 426.76 836.5 433.95 836.5 433.95 829.07 433.95 828.66 433.95 821.29 425.3 821.29 425.3 828.66 415.2 828.66 415.2 806.6 425.3 806.6 425.3 812 433.95 812 433.95 806.6 433.95 806.59 433.95 806.59 433.95 798.76 426.99 798.76 413.34 798.76"/><path class="cls-3" d="M530.42,798.76h-3.23V836.5h8.7v-8.77H548l.21,0h5.94v-29h-23.7Zm15,21.54h-9.53V806.59h9.53Z"/><polygon class="cls-3" points="1098.8 798.76 1092.62 798.76 1090.77 798.76 1083.97 798.76 1083.97 805.73 1083.97 829.01 1083.97 836.5 1091.29 836.5 1092.62 836.5 1098.8 836.5 1104.18 836.5 1111.38 836.5 1111.38 829.07 1111.38 828.71 1111.38 821.29 1102.72 821.29 1102.72 828.71 1098.8 828.71 1098.8 828.72 1092.62 828.72 1092.62 806.6 1102.72 806.6 1102.72 812 1111.38 812 1111.38 806.6 1111.33 806.54 1111.38 806.54 1111.38 798.76 1104.41 798.76 1098.8 798.76"/><path class="cls-3" d="M751,798.76H736.64V836.5h8.71v-8.77h18.23v-29H751Zm3.89,21.54h-9.52V806.48h9.52Z"/><polygon class="cls-3" points="857.19 798.76 851.01 798.76 845.08 798.76 838.41 798.76 838.41 805.15 838.41 806.09 838.41 811.53 838.41 816.55 857.16 823.49 857.16 829.01 847.06 829.01 847.06 823.32 838.41 823.32 838.41 829.08 838.41 829.24 838.41 836.5 845.38 836.5 851.01 836.5 853.21 836.5 858.78 836.5 865.81 836.5 865.81 829.12 865.81 829.08 865.81 823.14 865.81 817.92 847.06 811.13 847.06 806.25 857.16 806.25 857.16 811.36 865.81 811.36 865.81 808.19 865.81 806.6 865.81 798.76 858.84 798.76 857.19 798.76"/><rect class="cls-3" x="698.71" y="810.12" width="13.04" height="13.04"/><rect class="cls-3" x="488.97" y="810.12" width="13.04" height="13.04"/></svg>