<svg id="Layer_1" data-name="Layer 1" xmlns="http://www.w3.org/2000/svg" viewBox="0 0 2000 1161"><defs><style>.cls-1{fill:#c42036;}.cls-2{fill:#a7a9ac;}.cls-3{fill:#fff;}.cls-4{fill:#231f20;}</style></defs><polygon class="cls-1" points="425.96 839.43 1215.19 132.84 1215.33 132.77 1442.97 331.97 1544.69 331.97 1214.7 43.27 251.4 906.39 1721.27 906.39 1796.27 839.43 425.96 839.43"/><polygon class="cls-2" points="56.22 1091.98 1539.03 1091.98 1677.93 968.01 195.13 968.01 56.22 1091.98"/><polygon class="cls-3" points="1160.01 582.43 1329.11 410.39 1235.37 410.39 1097.72 551.28 1085.26 551.28 1140.01 410.39 1058.2 410.39 921.32 762.57 1003.13 762.57 1059.36 617.91 1072.37 617.91 1103.36 762.57 1199.27 762.57 1160.53 584.85 1160.01 582.43"/><polygon class="cls-3" points="1460.11 641.45 1440.24 692.62 1346.24 692.62 1346.02 692.62 1366.67 639.54 1285.94 639.54 1238.09 762.74 1494.18 762.74 1561.4 588.86 1410.98 525.46 1428.58 480.29 1522.45 480.29 1522.8 480.29 1504.28 527.93 1585 527.93 1630.45 410.38 1374.44 410.38 1310.19 576.35 1460.11 641.45"/><polygon class="cls-3" points="1827.66 533.94 1908.38 533.94 1956.02 410.38 1700.29 410.38 1563.94 762.74 1819.74 762.74 1864.73 646.35 1784.44 645.09 1767.01 690.01 1766.8 690.01 1673.08 690.01 1752.95 483.54 1847.1 483.54 1827.66 533.94"/><path class="cls-4" d="M270.05,1003l-11.87,54h12.7l2-10h14.62l2,10h12.71l-11.71-54Zm5,33.46,4.57-22.75h1.25l4.56,22.75Z"/><path class="cls-4" d="M344.2,1029.08c0,3.49.16,8.64.41,14a130,130,0,0,0-6.14-16.27l-11-23.75H312.23v54h10.88v-23.5c0-3-.09-7.8-.34-13a94.31,94.31,0,0,0,5.48,14.94L338.88,1057h16.2v-54H344.2Z"/><polygon class="cls-4" points="392.69 1056.98 427.06 1056.98 427.06 1046.27 405.23 1046.27 405.23 1035.23 421.08 1035.23 421.08 1024.6 405.23 1024.6 405.23 1013.72 427.06 1013.72 427.06 1003.01 392.69 1003.01 392.69 1056.98"/><path class="cls-4" d="M466.42,1043.28h-.58L455.05,1003H438.27v54h11.3v-25.16c0-2.74-.25-8-.5-13.62,1.24,5.4,2.41,10.55,3.15,13.46L459,1057h14.12l6.64-25.41c.67-2.65,1.74-7.47,2.91-12.7-.17,5.39-.33,10.54-.33,13.12v25h11.12v-54H476.72Z"/><polygon class="cls-4" points="567.88 1003.01 555.35 1003.01 555.35 1056.98 590.22 1056.98 590.22 1045.86 567.88 1045.86 567.88 1003.01"/><polygon class="cls-4" points="670.76 1024.18 670.59 1024.18 662.12 1003.01 649 1003.01 664.2 1036.06 664.2 1056.98 676.74 1056.98 676.74 1035.97 692.52 1003.01 679.4 1003.01 670.76 1024.18"/><polygon class="cls-4" points="701.07 1056.98 735.45 1056.98 735.45 1046.27 713.61 1046.27 713.61 1035.23 729.46 1035.23 729.46 1024.6 713.61 1024.6 713.61 1013.72 735.45 1013.72 735.45 1003.01 701.07 1003.01 701.07 1056.98"/><polygon class="cls-4" points="746.65 1056.98 781.03 1056.98 781.03 1046.27 759.19 1046.27 759.19 1035.23 775.05 1035.23 775.05 1024.6 759.19 1024.6 759.19 1013.72 781.03 1013.72 781.03 1003.01 746.65 1003.01 746.65 1056.98"/><polygon class="cls-4" points="915.46 1044.44 914.88 1044.44 907.65 1003.01 893.12 1003.01 886.48 1044.36 885.9 1044.36 880.25 1003.01 867.63 1003.01 877.43 1056.98 894.03 1056.98 900.26 1019.7 900.84 1019.7 907.32 1056.98 923.93 1056.98 933.64 1003.01 921.1 1003.01 915.46 1044.44"/><path class="cls-4" d="M975.24,1029.08c0,3.49.16,8.64.41,14a130,130,0,0,0-6.14-16.27l-11-23.75H943.27v54h10.88v-23.5c0-3-.09-7.8-.34-13a93.34,93.34,0,0,0,5.49,14.94L969.92,1057h16.19v-54H975.24Z"/><polygon class="cls-4" points="998.32 1056.98 1032.69 1056.98 1032.69 1046.27 1010.86 1046.27 1010.86 1035.23 1026.72 1035.23 1026.72 1024.6 1010.86 1024.6 1010.86 1013.72 1032.69 1013.72 1032.69 1003.01 998.32 1003.01 998.32 1056.98"/><path class="cls-4" d="M1043.9,1003v54h29.56l10-10.63v-32l-8.72-11.29Zm27.24,42.85h-14.7v-31.64h14.7Z"/><path class="cls-4" d="M1252.56,1043.28H1252L1241.19,1003h-16.78v54h11.3v-25.16c0-2.74-.25-8-.5-13.62,1.24,5.4,2.41,10.55,3.15,13.46l6.81,25.32h14.12l6.64-25.41c.67-2.65,1.75-7.47,2.91-12.7-.17,5.39-.33,10.54-.33,13.12v25h11.13v-54h-16.78Z"/><path class="cls-4" d="M1322.72,1003h-30.89v54h12.46v-12.54h13.62v0h12.45v-41.38h-6.61C1323.41,1003.06,1323.1,1003,1322.72,1003Zm-18.43,30.8v-19.76h13.62v19.76Z"/><path class="cls-4" d="M1349.13,1003l-11.88,54H1350l2-10h14.62l2,10h12.7l-11.71-54Zm5,33.46,4.57-22.75h1.24l4.57,22.75Z"/><path class="cls-4" d="M1423.28,1029.08c0,3.49.16,8.64.41,14a131.56,131.56,0,0,0-6.14-16.27l-11-23.75H1391.3v54h10.88v-23.5c0-3-.08-7.8-.33-13a93.33,93.33,0,0,0,5.48,14.94L1418,1057h16.19v-54h-10.87Z"/><polygon class="cls-4" points="1473.09 1003.01 1464.46 1024.18 1464.29 1024.18 1455.82 1003.01 1442.7 1003.01 1457.9 1036.06 1457.9 1056.98 1470.44 1056.98 1470.44 1035.97 1486.21 1003.01 1473.09 1003.01"/><path class="cls-4" d="M523.27,1003H505.69v54h12.46v-12.54h26.07v-31.39c0-.17,0-.31,0-.48h0V1003h-21Zm-5.12,30.8v-19.76h13.62v19.76Z"/><path class="cls-4" d="M629.33,1003H601.1v54h40.68v-54H629.33Zm0,42.85H613.47v-31.64h15.86Z"/><path class="cls-4" d="M858.21,1057v-54H817.52v54Zm-28.28-11.12v-31.64h15.82v31.64Z"/><path class="cls-4" d="M1212.29,1003H1171.6v54h40.69v-54Zm-12.45,42.85H1184v-31.64h15.86Z"/><polygon class="cls-4" points="1120.95 1056.98 1160.15 1056.98 1160.15 1046.35 1160.15 1035.23 1147.78 1035.23 1147.69 1035.23 1147.69 1045.86 1133.41 1045.86 1133.41 1014.22 1147.69 1014.22 1147.69 1022.53 1160.15 1022.53 1160.15 1021.94 1160.15 1014.22 1160.15 1003.01 1120.95 1003.01 1120.95 1056.98"/></svg>