<svg id="Layer_1" data-name="Layer 1" xmlns="http://www.w3.org/2000/svg" viewBox="0 0 2000 1161"><defs><style>.cls-1{fill:#c42036;}.cls-2{fill:#fff;}.cls-3{fill:#231f20;}</style></defs><polygon class="cls-1" points="421.86 840.99 1207.35 137.75 1207.48 137.68 1434.05 335.93 1535.29 335.93 1206.87 48.6 248.12 907.63 1711.03 907.63 1785.67 840.99 421.86 840.99"/><line class="cls-1" x1="421.87" y1="840.99" x2="422.85" y2="840.96"/><polygon class="cls-2" points="53.87 1092.34 1529.65 1092.34 1667.9 968.96 192.12 968.96 53.87 1092.34"/><polygon class="cls-3" points="1152.43 585.2 1320.73 413.99 1227.43 413.99 1090.43 554.2 1078.03 554.2 1132.53 413.99 1051.1 413.99 914.87 764.49 996.29 764.49 1052.25 620.52 1065.2 620.52 1096.05 764.49 1191.5 764.49 1152.94 587.61 1152.43 585.2"/><polygon class="cls-3" points="1451.1 643.94 1431.34 694.88 1337.77 694.88 1337.56 694.88 1358.11 642.04 1277.76 642.04 1230.14 764.66 1485.01 764.66 1551.91 591.6 1402.21 528.5 1419.73 483.55 1513.15 483.55 1513.5 483.55 1495.07 530.97 1575.41 530.97 1620.64 413.98 1365.84 413.98 1301.89 579.15 1451.1 643.94"/><polygon class="cls-3" points="1816.91 536.94 1897.25 536.94 1944.67 413.98 1690.15 413.98 1554.44 764.66 1809.04 764.66 1853.81 648.82 1773.9 647.57 1756.55 692.27 1756.35 692.27 1663.07 692.27 1742.56 486.79 1836.26 486.79 1816.91 536.94"/></svg>