<svg id="Layer_1" data-name="Layer 1" xmlns="http://www.w3.org/2000/svg" viewBox="0 0 2000 932.33"><defs><style>.cls-1{fill:#c42036;}.cls-2{fill:#a7a9ac;}.cls-3{fill:#fff;}</style></defs><polygon class="cls-1" points="1368.77 661 1341.73 661 1318.02 661 333.17 661 422.48 581.3 423.23 581.3 467.97 541.39 488.62 522.94 500.04 512.75 503.1 510.01 943.31 114.75 943.41 114.7 1119.4 268.69 1122.67 268.69 1146.7 268.69 1174.01 268.69 1198.04 268.69 942.93 45.5 468.5 471.44 198.22 712.76 1334.55 712.76 1392.53 661 1368.77 661"/><polygon class="cls-1" points="423.22 581.3 422.49 581.3 333.18 661 1313.99 661 1314.02 660.98 333.94 660.98 375.66 623.73 423.22 581.3"/><polygon class="cls-2" points="47.33 856.24 1193.66 856.24 1301.04 760.4 154.72 760.4 47.33 856.24"/><polygon class="cls-3" points="837.36 384.1 897.75 318.7 861.6 318.7 811.75 373.03 806.94 373.03 824.82 318.7 793.27 318.7 748.57 454.52 780.12 454.52 798.48 398.73 803.5 398.73 818.77 454.52 855.76 454.52 836.74 385.98 837.36 384.1"/><polygon class="cls-3" points="874.97 454.52 961.48 454.52 970.36 427.56 915.4 427.56 924.54 399.77 964.46 399.77 973.26 373.03 933.35 373.03 942.36 345.65 997.32 345.65 1006.19 318.7 919.68 318.7 874.97 454.52"/><path class="cls-3" d="M1089.07,384.31c-2.89,8.78-6.73,21.73-10.51,35.11a271.45,271.45,0,0,0-2-41l-7.91-59.76h-38.45L985.51,454.52h27.38l19.46-59.14c2.48-7.52,6.26-19.64,10-32.8-.58,13.16-.38,26.54,1.41,37.61l8.86,54.33h40.75l44.71-135.82h-27.38Z"/><path class="cls-3" d="M1223.43,384.31c-2.89,8.78-6.74,21.73-10.52,35.11a271.45,271.45,0,0,0-2-41L1203,318.7h-38.45l-44.71,135.82h27.38l19.47-59.14c2.47-7.52,6.25-19.64,10-32.8-.58,13.16-.38,26.54,1.41,37.61l8.86,54.33h40.74l44.71-135.82H1245Z"/><polygon class="cls-3" points="1326.94 371.98 1326.52 371.98 1322.75 318.7 1289.74 318.7 1300.6 401.86 1283.27 454.52 1314.82 454.52 1332.22 401.65 1399.23 318.7 1366.22 318.7 1326.94 371.98"/><polygon class="cls-3" points="1475.28 318.7 1467.71 341.68 1454.27 382.52 1466.87 388.07 1513.47 407.71 1506.94 427.56 1470.58 427.56 1477.32 407.08 1446.19 407.08 1430.57 454.52 1455.65 454.52 1529.2 454.52 1537.94 427.98 1551.22 387.63 1538.51 382.43 1491.77 363.21 1497.54 345.65 1533.9 345.65 1527.85 364.04 1558.99 364.04 1573.91 318.7 1548.83 318.7 1475.28 318.7"/><polygon class="cls-3" points="1554.69 454.52 1641.2 454.52 1650.07 427.56 1595.11 427.56 1604.26 399.77 1644.17 399.77 1652.97 373.03 1613.06 373.03 1622.07 345.65 1677.03 345.65 1685.91 318.7 1599.4 318.7 1554.69 454.52"/><path class="cls-3" d="M1768.79,384.31c-2.89,8.78-6.74,21.73-10.52,35.11a272.73,272.73,0,0,0-2-41l-7.92-59.76h-38.44l-44.71,135.82h27.37l19.47-59.14c2.47-7.52,6.25-19.64,10-32.8-.57,13.16-.38,26.54,1.41,37.61l8.86,54.33h40.75l44.71-135.82h-27.37Z"/><path class="cls-3" d="M1943.33,318.7h-99.25l-8.18,24.86-27.45,83.37-.21.63-8.87,27h99.25l8.81-26.75.27-.84,16.65-50.56h-52.66l-7.91,24h21.94L1877,426.93h-37.61l26.48-80.44h37.19l-5,15.25h31.13l5-15.25c.34-1,.63-2,.91-2.93h.06Z"/><path class="cls-3" d="M986.83,550.79c-2.36,7.17-5.51,17.76-8.59,28.68A222.56,222.56,0,0,0,976.62,546l-6.46-48.82H938.75l-36.53,111h22.36l15.91-48.31c2-6.14,5.11-16.05,8.14-26.8-.47,10.75-.31,21.68,1.15,30.73L957,608.15h33.29l36.53-111h-22.37Z"/><polygon class="cls-3" points="1136.84 519.89 1164.84 519.89 1135.78 608.15 1161.73 608.15 1190.78 519.89 1218.78 519.89 1226.26 497.19 1144.31 497.19 1136.84 519.89"/><path class="cls-3" d="M1304.29,555.74l12.59-38.24-9.36-20.31h-64.36l-36.53,111h25.78l10.67-32.43h18.78l-.43,32.43h25.78l-.2-33.63Zm-24.76-2h-29.2l11-33.47h29.19Z"/><path class="cls-3" d="M1370.89,585.28H1340.5l29-88.09h-25.44L1314.5,587c-4.78,14.51,1.74,21.16,13.35,21.16h40.46c13.49,0,23.57-9.38,27.73-22l29.28-88.94h-25.44Z"/><polygon class="cls-3" points="1535.82 519.89 1563.82 519.89 1534.77 608.15 1560.72 608.15 1589.77 519.89 1617.77 519.89 1625.24 497.19 1543.3 497.19 1535.82 519.89"/><polygon class="cls-3" points="1606.47 608.15 1632.25 608.15 1668.77 497.19 1642.99 497.19 1606.47 608.15"/><path class="cls-3" d="M1862.21,497.19l-17.64,53.6c-2.36,7.17-5.5,17.76-8.59,28.68a222.56,222.56,0,0,0-1.62-33.46l-6.46-48.82h-31.41l-36.53,111h22.36l15.91-48.31c2-6.14,5.11-16.05,8.14-26.8-.47,10.75-.31,21.68,1.15,30.73l7.24,44.38h33.29l36.53-111Z"/><polygon class="cls-3" points="752.82 497.19 732.85 497.19 726.11 517.67 725.26 520.23 703.85 585.28 703.57 586.13 696.27 608.32 776.84 608.32 784.09 586.3 784.43 585.28 791.62 563.43 766.18 563.43 758.99 585.28 729.29 585.28 750.7 520.23 780.4 520.23 775.18 536.11 800.61 536.11 805.84 520.23 813.43 497.19 792.94 497.19 752.82 497.19"/><path class="cls-3" d="M852.19,497.19H833.58L827,517.33l-1,2.9-21.41,65L804,587l-7,21.33h83.65l7.3-22.19.28-.85,21.41-65,7.59-23h-65Zm10.43,88.09H830l21.41-65H884Z"/><polygon class="cls-3" points="1466.81 497.19 1446.84 497.19 1440.1 517.67 1439.25 520.23 1417.84 585.28 1417.56 586.13 1410.26 608.32 1490.83 608.32 1498.08 586.3 1498.42 585.28 1505.61 563.43 1480.17 563.43 1472.98 585.28 1443.28 585.28 1464.69 520.23 1494.39 520.23 1489.17 536.11 1514.6 536.11 1519.83 520.23 1527.41 497.19 1506.93 497.19 1466.81 497.19"/><path class="cls-3" d="M1709.92,497.19h-18.61l-6.63,20.14-1,2.9-21.41,65-.56,1.71-7,21.33h83.65l7.31-22.19.28-.85,21.41-65,7.58-23h-65Zm10.44,88.09h-32.61l21.41-65h32.61Z"/><path class="cls-3" d="M1067.31,497.19h-19.63L1041.5,516l-1.07,3.24-5.11,15.54-4.86,14.76,48.42,20.4-5.34,16.22h-29.7l5.51-16.73h-25.44l-5.51,16.73-.22.69-7.08,21.5h80.36l6.21-18.84c.41-1,.85-2,1.2-3l5.78-17.58,4.88-15.44-48.38-19.9,4.72-14.34h29.7l-4.94,15h25.43l4.61-14c.12-.36.18-.67.29-1h0l7.25-22h-61Z"/></svg>