<svg id="Layer_1" data-name="Layer 1" xmlns="http://www.w3.org/2000/svg" viewBox="0 0 2000 932.33"><defs><style>.cls-1{fill:#231f20;}.cls-2{fill:#a7a9ac;}.cls-3{fill:#fff;}</style></defs><polygon class="cls-1" points="1358.08 660.79 1331.26 660.79 1307.75 660.79 330.86 660.79 419.45 581.73 420.19 581.73 464.56 542.14 485.05 523.84 496.38 513.73 499.41 511.02 936.06 118.96 936.17 118.9 1110.73 271.65 1113.98 271.65 1137.81 271.65 1164.89 271.65 1188.73 271.65 935.69 50.27 465.1 472.77 197 712.13 1324.13 712.13 1381.65 660.79 1358.08 660.79"/><polygon class="cls-1" points="420.18 581.73 419.45 581.73 330.87 660.79 1303.75 660.79 1303.78 660.76 331.62 660.76 373 623.82 420.18 581.73"/><polygon class="cls-2" points="47.33 854.45 1184.39 854.45 1290.9 759.39 153.85 759.39 47.33 854.45"/><polygon class="cls-3" points="830.97 386.13 890.88 321.25 855.01 321.25 805.57 375.14 800.8 375.14 818.54 321.25 787.24 321.25 742.89 455.98 774.19 455.98 792.4 400.64 797.38 400.64 812.54 455.98 849.22 455.98 830.35 387.99 830.97 386.13"/><polygon class="cls-3" points="868.28 455.98 954.09 455.98 962.89 429.24 908.38 429.24 917.45 401.67 957.04 401.67 965.77 375.14 926.18 375.14 935.12 347.99 989.63 347.99 998.44 321.25 912.63 321.25 868.28 455.98"/><path class="cls-3" d="M1080.65,386.33c-2.87,8.71-6.68,21.56-10.43,34.83a269.68,269.68,0,0,0-2-40.63l-7.85-59.28h-38.14L977.93,456h27.15l19.31-58.66c2.45-7.46,6.2-19.48,9.88-32.54-.57,13.06-.38,26.32,1.4,37.3l8.79,53.9h40.42l44.35-134.73h-27.16Z"/><path class="cls-3" d="M1213.91,386.33c-2.86,8.71-6.68,21.56-10.43,34.83a269.68,269.68,0,0,0-2-40.63l-7.85-59.28h-38.13L1111.19,456h27.15l19.31-58.66c2.46-7.46,6.21-19.48,9.88-32.54-.56,13.06-.37,26.32,1.4,37.3l8.79,53.9h40.42l44.35-134.73h-27.15Z"/><polygon class="cls-3" points="1316.59 374.11 1316.18 374.11 1312.44 321.25 1279.69 321.25 1290.46 403.75 1273.27 455.98 1304.57 455.98 1321.83 403.54 1388.3 321.25 1355.55 321.25 1316.59 374.11"/><polygon class="cls-3" points="1463.73 321.25 1456.23 344.05 1442.89 384.56 1455.38 390.06 1501.62 409.55 1495.13 429.24 1459.07 429.24 1465.76 408.93 1434.87 408.93 1419.38 455.98 1444.26 455.98 1517.22 455.98 1525.88 429.65 1539.06 389.63 1526.45 384.47 1480.09 365.4 1485.82 347.99 1521.88 347.99 1515.88 366.23 1546.76 366.23 1561.57 321.25 1536.69 321.25 1463.73 321.25"/><polygon class="cls-3" points="1542.5 455.98 1628.31 455.98 1637.11 429.24 1582.6 429.24 1591.67 401.67 1631.26 401.67 1639.99 375.14 1600.4 375.14 1609.34 347.99 1663.85 347.99 1672.65 321.25 1586.85 321.25 1542.5 455.98"/><path class="cls-3" d="M1754.87,386.33c-2.87,8.71-6.68,21.56-10.43,34.83a269.71,269.71,0,0,0-2-40.63l-7.84-59.28h-38.14L1652.14,456h27.16l19.31-58.66c2.45-7.46,6.2-19.48,9.88-32.54-.57,13.06-.38,26.32,1.4,37.3l8.79,53.9h40.42l44.34-134.73h-27.15Z"/><path class="cls-3" d="M1928,321.25h-98.45l-8.12,24.67-27.22,82.69-.21.63L1785.2,456h98.45l8.74-26.53.27-.84,16.51-50.15h-52.23l-7.85,23.83h21.76l-8.66,26.32h-37.3l26.26-79.79H1888l-5,15.13h30.88l5-15.13c.33-1,.62-2,.9-2.9h.06Z"/><path class="cls-3" d="M979.23,551.47c-2.34,7.12-5.46,17.61-8.52,28.45a221.52,221.52,0,0,0-1.6-33.19l-6.42-48.43H931.54L895.31,608.37h22.18l15.77-47.92c2-6.1,5.07-15.92,8.08-26.59-.46,10.67-.31,21.51,1.14,30.48l7.18,44h33l36.23-110.07H996.73Z"/><polygon class="cls-3" points="1128.02 520.82 1155.8 520.82 1126.98 608.37 1152.72 608.37 1181.54 520.82 1209.31 520.82 1216.72 498.3 1135.44 498.3 1128.02 520.82"/><path class="cls-3" d="M1294.12,556.38l12.49-37.93-9.29-20.15h-63.83l-36.23,110.07h25.56l10.59-32.17H1252l-.43,32.17h25.57L1277,575Zm-24.56-2h-29l10.93-33.19h29Z"/><path class="cls-3" d="M1360.18,585.68H1330l28.76-87.38h-25.23l-29.32,89.07c-4.73,14.4,1.73,21,13.24,21h40.13c13.38,0,23.39-9.31,27.52-21.85l29-88.22H1389Z"/><polygon class="cls-3" points="1523.78 520.82 1551.56 520.82 1522.74 608.37 1548.48 608.37 1577.3 520.82 1605.07 520.82 1612.48 498.3 1531.2 498.3 1523.78 520.82"/><polygon class="cls-3" points="1593.86 608.37 1619.43 608.37 1655.66 498.3 1630.09 498.3 1593.86 608.37"/><path class="cls-3" d="M1847.53,498.3,1830,551.47c-2.34,7.12-5.45,17.61-8.52,28.45a221.52,221.52,0,0,0-1.6-33.19l-6.41-48.43h-31.16l-36.23,110.07h22.18l15.78-47.92c2-6.1,5.07-15.92,8.07-26.59-.46,10.67-.31,21.51,1.14,30.48l7.18,44h33l36.23-110.07Z"/><polygon class="cls-3" points="747.12 498.3 727.31 498.3 720.62 518.62 719.78 521.16 698.54 585.68 698.26 586.52 691.02 608.54 770.94 608.54 778.13 586.69 778.47 585.68 785.6 564 760.37 564 753.24 585.68 723.77 585.68 745.01 521.16 774.48 521.16 769.29 536.91 794.52 536.91 799.71 521.16 807.23 498.3 786.91 498.3 747.12 498.3"/><path class="cls-3" d="M845.68,498.3H827.22l-6.58,20-.94,2.88-21.24,64.52-.56,1.69-7,21.17h83l7.24-22,.28-.84,21.24-64.52,7.53-22.86H845.68ZM856,585.68H823.69l21.24-64.52h32.34Z"/><polygon class="cls-3" points="1455.33 498.3 1435.52 498.3 1428.83 518.62 1427.99 521.16 1406.76 585.68 1406.48 586.52 1399.23 608.54 1479.16 608.54 1486.35 586.69 1486.68 585.68 1493.82 564 1468.59 564 1461.45 585.68 1431.99 585.68 1453.23 521.16 1482.69 521.16 1477.51 536.91 1502.74 536.91 1507.92 521.16 1515.44 498.3 1495.12 498.3 1455.33 498.3"/><path class="cls-3" d="M1696.47,498.3H1678l-6.58,20-1,2.88-21.23,64.52-.56,1.69-7,21.17h83l7.24-22,.28-.84,21.24-64.52L1761,498.3h-64.52Zm10.36,87.38h-32.34l21.23-64.52h32.35Z"/><path class="cls-3" d="M1059.06,498.3h-19.47l-6.13,18.63-1.06,3.21-5.07,15.42-4.82,14.64,48,20.24-5.3,16.08h-29.46l5.46-16.59H1016l-5.46,16.59-.22.68-7,21.34H1083l6.15-18.69c.41-1,.85-1.94,1.19-3l5.74-17.45,4.84-15.31-48-19.74,4.68-14.23h29.46l-4.9,14.91h25.23l4.57-13.89c.12-.36.18-.66.29-1h0l7.2-21.84h-60.46Z"/><path class="cls-1" d="M218.76,786.2l-9.13,41.5h9.77l1.53-7.73h11.24l1.53,7.73h9.76l-9-41.5Zm3.83,25.73,3.51-17.49h1l3.51,17.49Z"/><path class="cls-1" d="M275.76,806.25c0,2.68.13,6.64.32,10.72a101.42,101.42,0,0,0-4.72-12.51l-8.43-18.26H251.19v41.5h8.36V809.63c0-2.3-.07-6-.26-10a71.49,71.49,0,0,0,4.21,11.49l8.18,16.6h12.44V786.2h-8.36Z"/><polygon class="cls-1" points="313.04 827.7 339.46 827.7 339.46 819.46 322.68 819.46 322.68 810.97 334.87 810.97 334.87 802.8 322.68 802.8 322.68 794.44 339.46 794.44 339.46 786.2 313.04 786.2 313.04 827.7"/><path class="cls-1" d="M369.72,817.16h-.45l-8.3-31H348.08v41.5h8.68V808.35c0-2.1-.19-6.19-.38-10.47,1,4.15,1.85,8.11,2.42,10.35L364,827.7h10.85L380,808.16c.51-2,1.34-5.74,2.23-9.76-.13,4.14-.25,8.1-.25,10.08V827.7h8.55V786.2H377.64Z"/><polygon class="cls-1" points="447.72 786.2 438.08 786.2 438.08 827.7 464.89 827.7 464.89 819.14 447.72 819.14 447.72 786.2"/><polygon class="cls-1" points="526.8 802.48 526.67 802.48 520.16 786.2 510.08 786.2 521.76 811.61 521.76 827.7 531.4 827.7 531.4 811.54 543.53 786.2 533.44 786.2 526.8 802.48"/><polygon class="cls-1" points="550.1 827.7 576.53 827.7 576.53 819.46 559.74 819.46 559.74 810.97 571.93 810.97 571.93 802.8 559.74 802.8 559.74 794.44 576.53 794.44 576.53 786.2 550.1 786.2 550.1 827.7"/><polygon class="cls-1" points="585.14 827.7 611.57 827.7 611.57 819.46 594.78 819.46 594.78 810.97 606.97 810.97 606.97 802.8 594.78 802.8 594.78 794.44 611.57 794.44 611.57 786.2 585.14 786.2 585.14 827.7"/><polygon class="cls-1" points="714.91 818.06 714.47 818.06 708.91 786.2 697.74 786.2 692.63 817.99 692.19 817.99 687.85 786.2 678.14 786.2 685.67 827.7 698.44 827.7 703.23 799.03 703.68 799.03 708.65 827.7 721.42 827.7 728.89 786.2 719.25 786.2 714.91 818.06"/><path class="cls-1" d="M760.87,806.25c0,2.68.13,6.64.32,10.72a101.53,101.53,0,0,0-4.73-12.51L748,786.2H736.29v41.5h8.36V809.63c0-2.3-.06-6-.25-10a71.49,71.49,0,0,0,4.21,11.49l8.17,16.6h12.45V786.2h-8.36Z"/><polygon class="cls-1" points="778.61 827.7 805.04 827.7 805.04 819.46 788.25 819.46 788.25 810.97 800.44 810.97 800.44 802.8 788.25 802.8 788.25 794.44 805.04 794.44 805.04 786.2 778.61 786.2 778.61 827.7"/><path class="cls-1" d="M813.65,786.2v41.5h22.73l7.72-8.17V794.88l-6.7-8.68Zm20.94,32.94h-11.3V794.82h11.3Z"/><path class="cls-1" d="M974.06,817.16h-.45l-8.3-31H952.42v41.5h8.68V808.35c0-2.1-.19-6.19-.38-10.47.95,4.15,1.85,8.11,2.42,10.35l5.24,19.47h10.85l5.11-19.54c.51-2,1.34-5.74,2.23-9.76-.13,4.14-.26,8.1-.26,10.08V827.7h8.56V786.2H982Z"/><path class="cls-1" d="M1028,786.2h-23.74v41.5h9.57v-9.64h20v-31.8h-5.09C1028.52,786.25,1028.28,786.2,1028,786.2Zm-14.17,23.69v-15.2h10.47v15.2Z"/><path class="cls-1" d="M1048.29,786.2l-9.13,41.5h9.77l1.53-7.73h11.24l1.53,7.73H1073l-9-41.5Zm3.83,25.73,3.51-17.49h1l3.51,17.49Z"/><path class="cls-1" d="M1105.29,806.25c0,2.68.13,6.64.32,10.72a101.42,101.42,0,0,0-4.72-12.51l-8.43-18.26h-11.75v41.5h8.37V809.63c0-2.3-.07-6-.26-10A71.49,71.49,0,0,0,1093,811.1l8.17,16.6h12.44V786.2h-8.36Z"/><polygon class="cls-1" points="1143.59 786.2 1136.95 802.48 1136.82 802.48 1130.31 786.2 1120.23 786.2 1131.91 811.61 1131.91 827.7 1141.55 827.7 1141.55 811.54 1153.68 786.2 1143.59 786.2"/><path class="cls-1" d="M413.42,786.2H399.91v41.5h9.57v-9.64h20V793.93c0-.13,0-.25,0-.37h0V786.2H413.42Zm-3.94,23.69v-15.2H420v15.2Z"/><path class="cls-1" d="M495,786.2h-21.7v41.5h31.28V786.2H495Zm0,32.94H482.76V794.82H495Z"/><path class="cls-1" d="M670.9,827.7V786.2H639.62v41.5Zm-21.73-8.56V794.82h12.16v24.32Z"/><path class="cls-1" d="M943.1,786.2H911.82v41.5H943.1V786.2Zm-9.57,32.94h-12.2V794.82h12.2Z"/><polygon class="cls-1" points="872.88 827.7 903.01 827.7 903.01 819.52 903.01 810.97 893.5 810.97 893.44 810.97 893.44 819.14 882.46 819.14 882.46 794.82 893.44 794.82 893.44 801.21 903.01 801.21 903.01 800.76 903.01 794.82 903.01 786.2 872.88 786.2 872.88 827.7"/></svg>