<?xml version="1.0"?>
<svg width="2000" height="2000" xmlns="http://www.w3.org/2000/svg" xmlns:svg="http://www.w3.org/2000/svg" data-name="Layer 1">
 <defs>
  <style>.cls-1{fill:#231f20;}.cls-2{fill:#a7a9ac;}.cls-3{fill:#c42036;}</style>
 </defs>
 <g class="layer">
  <title>Layer 1</title>
  <rect fill="#e5e5e5" height="1803.33" id="svg_3" rx="461" ry="461" stroke="#000000" stroke-linejoin="round" stroke-width="55" transform="matrix(1.04865 0 0 1.07573 -1.33767 -2.03098)" width="1850" x="27.5" y="27.5"/>
  <line class="cls-1" id="svg_2" x1="21.87" x2="22.85" y1="1307.66" y2="1307.63"/>
  <g id="svg_7" transform="translate(0 671.375) translate(0 -624.71) matrix(1.70753 0 0 1.87421 -712.831 -919.602)">
   <polygon class="cls-3" id="svg_4" points="752.4300537109375,1051.8666687011719 920.72998046875,880.6566467285156 827.4300537109375,880.6566467285156 690.4300537109375,1020.8666687011719 678.030029296875,1020.8666687011719 732.530029296875,880.6566467285156 651.0999755859375,880.6566467285156 514.8699951171875,1231.1566467285156 596.2899780273438,1231.1566467285156 652.25,1087.1866760253906 665.199951171875,1087.1866760253906 696.050048828125,1231.1566467285156 791.5,1231.1566467285156 752.93994140625,1054.2766418457031 752.4300537109375,1051.8666687011719" transform="matrix(1 0 0 1 -26.6667 -56.6667)"/>
   <polygon class="cls-3" id="svg_5" points="1051.0999755859375,1110.6066589355469 1031.3399658203125,1161.5466613769531 937.77001953125,1161.5466613769531 937.56005859375,1161.5466613769531 958.1099853515625,1108.7066345214844 877.760009765625,1108.7066345214844 830.1400146484375,1231.3266296386719 1085.010009765625,1231.3266296386719 1151.9100341796875,1058.2666320800781 1002.2099609375,995.1666564941406 1019.72998046875,950.2166442871094 1113.1500244140625,950.2166442871094 1113.5,950.2166442871094 1095.0699462890625,997.6366271972656 1175.4100341796875,997.6366271972656 1220.6400146484375,880.6466674804688 965.8399658203125,880.6466674804688 901.8900146484375,1045.8166809082031 1051.0999755859375,1110.6066589355469" transform="matrix(1 0 0 1 -26.6667 -56.6667)"/>
   <polygon class="cls-3" id="svg_6" points="1416.9100341796875,1003.6066589355469 1497.25,1003.6066589355469 1544.6700439453125,880.6466674804688 1290.1500244140625,880.6466674804688 1154.43994140625,1231.3266296386719 1409.0400390625,1231.3266296386719 1453.81005859375,1115.4866638183594 1373.9000244140625,1114.2366638183594 1356.550048828125,1158.9366760253906 1356.3499755859375,1158.9366760253906 1263.0699462890625,1158.9366760253906 1342.56005859375,953.4566650390625 1436.260009765625,953.4566650390625 1416.9100341796875,1003.6066589355469" transform="matrix(1 0 0 1 -26.6667 -56.6667)"/>
  </g>
 </g>
</svg>